<svg width="67" height="28" viewBox="0 0 67 28" fill="none" xmlns="http://www.w3.org/2000/svg">
<g clip-path="url(#clip0_69_523)">
<path d="M20.8296 0.521973H6.12636C2.74287 0.521973 0 3.26484 0 6.64833V21.3516C0 24.7351 2.74287 27.478 6.12636 27.478H20.8296C24.2131 27.478 26.956 24.7351 26.956 21.3516V6.64833C26.956 3.26484 24.2131 0.521973 20.8296 0.521973Z" fill="black"/>
<path d="M12.2545 21.6057L10.9195 20.8549C10.2038 21.2581 10.4859 22.36 11.3048 22.36H11.8656C11.9998 22.36 12.134 22.3252 12.251 22.2591C12.5022 22.1166 12.5022 21.7517 12.251 21.6091L12.2545 21.6057Z" fill="white"/>
<path d="M11.0639 9.91238C11.432 10.3086 12.0514 10.3086 12.4195 9.91238C12.7567 9.55086 12.7567 8.9843 12.4195 8.62278L10.8574 6.94391C10.682 6.7562 10.4377 6.64844 10.1796 6.64844C9.36414 6.64844 8.94093 7.63215 9.5018 8.23351L11.0639 9.91238Z" fill="white"/>
<path d="M15.7469 12.1961C15.3787 11.7999 14.7559 11.7999 14.3877 12.1961C14.0505 12.5576 14.0505 13.1242 14.3877 13.4857L17.6909 17.0347L15.4337 18.3069C14.7972 18.6649 14.7972 19.593 15.4337 19.951C15.7159 20.1109 16.06 20.1109 16.3421 19.951L20.6843 17.5039L15.7434 12.1961H15.7469Z" fill="white"/>
<path d="M15.4336 20.5942L15.3201 20.5282L13.407 19.4507L9.11638 17.0349L13.407 12.4292L14.6835 11.0562L17.3089 8.23717C17.8697 7.63581 17.4465 6.6521 16.631 6.6521C16.3729 6.6521 16.1287 6.75986 15.9532 6.94757L13.407 9.68318L12.1271 11.0562L6.12634 17.5041L11.4974 20.5317L13.4105 21.6092L14.5287 22.2419C14.6663 22.3218 14.8246 22.36 14.9829 22.36C15.9429 22.36 16.2766 21.0705 15.4371 20.5977L15.4336 20.5942Z" fill="white"/>
</g>
<path d="M38.2236 21.182C37.2532 21.182 36.5119 20.8854 35.9997 20.2924C35.4876 19.6994 35.2315 18.8503 35.2315 17.7451V7.4344C35.2315 7.16484 35.2989 6.96267 35.4337 6.82789C35.5684 6.67963 35.7706 6.6055 36.0402 6.6055C36.2963 6.6055 36.4984 6.67963 36.6467 6.82789C36.7949 6.96267 36.8691 7.16484 36.8691 7.4344V17.6238C36.8691 18.3516 37.0106 18.8974 37.2936 19.2613C37.5901 19.6118 38.0214 19.787 38.5875 19.787C38.7088 19.787 38.8166 19.7802 38.911 19.7668C39.0053 19.7533 39.0997 19.7465 39.194 19.7465C39.3423 19.7331 39.4434 19.7668 39.4973 19.8476C39.5647 19.9285 39.5984 20.0902 39.5984 20.3328C39.5984 20.5754 39.5445 20.7574 39.4366 20.8787C39.3288 21 39.1536 21.0809 38.911 21.1213C38.8032 21.1348 38.6886 21.1483 38.5673 21.1617C38.446 21.1752 38.3314 21.182 38.2236 21.182ZM43.1799 24.7806C42.9778 24.7806 42.816 24.7267 42.6947 24.6188C42.5734 24.511 42.4993 24.3628 42.4723 24.1741C42.4589 23.9989 42.4926 23.8169 42.5734 23.6282L43.9684 20.4946V21.2022L40.0867 12.1854C40.0059 11.9832 39.9789 11.7945 40.0059 11.6193C40.0328 11.4441 40.1137 11.3026 40.2485 11.1948C40.3833 11.0869 40.5719 11.033 40.8145 11.033C41.0302 11.033 41.1987 11.0802 41.32 11.1745C41.4413 11.2689 41.5491 11.4374 41.6434 11.68L44.959 19.8072H44.4132L47.7692 11.68C47.877 11.4374 47.9916 11.2689 48.1129 11.1745C48.2342 11.0802 48.4094 11.033 48.6385 11.033C48.8542 11.033 49.0159 11.0869 49.1237 11.1948C49.245 11.3026 49.3124 11.4441 49.3259 11.6193C49.3529 11.781 49.3259 11.963 49.245 12.1652L44.0695 24.1336C43.9617 24.3762 43.8404 24.5447 43.7056 24.6391C43.5843 24.7334 43.4091 24.7806 43.1799 24.7806ZM51.4449 21C51.2697 21 51.1282 20.9596 51.0203 20.8787C50.9125 20.7978 50.8384 20.69 50.798 20.5552C50.7575 20.4204 50.7575 20.2722 50.798 20.1105C50.8384 19.9487 50.926 19.7937 51.0608 19.6455L56.762 12.0237V12.4482H51.364C51.1484 12.4482 50.9799 12.3943 50.8586 12.2865C50.7508 12.1652 50.6969 12.0034 50.6969 11.8013C50.6969 11.5991 50.7508 11.4441 50.8586 11.3363C50.9799 11.2285 51.1484 11.1745 51.364 11.1745H57.5706C57.7728 11.1745 57.9346 11.215 58.0559 11.2958C58.1906 11.3767 58.2782 11.4845 58.3187 11.6193C58.3591 11.7406 58.3591 11.8821 58.3187 12.0439C58.2917 12.1921 58.2176 12.3404 58.0963 12.4886L52.294 20.1913V19.7263H57.975C58.4198 19.7263 58.6421 19.9352 58.6421 20.3531C58.6421 20.5552 58.5815 20.717 58.4602 20.8383C58.3524 20.9461 58.1906 21 57.975 21H51.4449ZM61.4501 21.1415C61.1805 21.1415 60.9716 21.0674 60.8234 20.9191C60.6886 20.7709 60.6212 20.562 60.6212 20.2924V11.8619C60.6212 11.5924 60.6886 11.3902 60.8234 11.2554C60.9582 11.1071 61.1536 11.033 61.4097 11.033C61.6657 11.033 61.8612 11.1071 61.996 11.2554C62.1442 11.3902 62.2183 11.5924 62.2183 11.8619V13.4995H62.0162C62.2318 12.7043 62.6429 12.091 63.2494 11.6597C63.8559 11.2285 64.604 10.9993 65.4935 10.9724C65.6957 10.9589 65.8574 11.0061 65.9787 11.1139C66.1 11.2082 66.1674 11.3767 66.1809 11.6193C66.1944 11.8484 66.1404 12.0304 66.0191 12.1652C65.8978 12.3 65.7091 12.3808 65.4531 12.4078L65.1296 12.4482C64.2131 12.5291 63.5055 12.8256 63.0068 13.3378C62.5216 13.8364 62.279 14.5238 62.279 15.3999V20.2924C62.279 20.562 62.2049 20.7709 62.0566 20.9191C61.9218 21.0674 61.7197 21.1415 61.4501 21.1415Z" fill="#121212"/>
<defs>
<clipPath id="clip0_69_523">
<rect width="26.956" height="26.956" fill="white" transform="translate(0 0.521973)"/>
</clipPath>
</defs>
</svg>
