<svg width="240" height="240" viewBox="0 0 240 240" fill="none" xmlns="http://www.w3.org/2000/svg">
<circle cx="125.25" cy="121.75" r="87.75" fill="#F1F3FF"/>
<circle cx="42.9997" cy="62.5" r="5.5" fill="#F1F3FF"/>
<circle cx="185.25" cy="40.75" r="10.25" fill="#F1F3FF"/>
<circle cx="44.7496" cy="178.25" r="9.75" fill="#F1F3FF"/>
<circle cx="219.25" cy="168.75" r="9.75" fill="#F1F3FF"/>
<circle cx="200.25" cy="179.75" r="4.75" fill="#F1F3FF"/>
<path d="M139.262 37.7685C138.972 37.7069 138.972 37.2931 139.262 37.2315L143.645 36.2995C143.751 36.277 143.833 36.1947 143.856 36.0891L144.8 31.7372C144.863 31.4487 145.274 31.4487 145.337 31.7372L146.28 36.0891C146.303 36.1947 146.386 36.277 146.491 36.2995L150.874 37.2315C151.164 37.2931 151.164 37.7069 150.874 37.7685L146.491 38.7005C146.386 38.723 146.303 38.8053 146.28 38.9109L145.337 43.2628C145.274 43.5513 144.863 43.5513 144.8 43.2628L143.856 38.9109C143.833 38.8053 143.751 38.723 143.645 38.7005L139.262 37.7685Z" fill="#C4CBF5"/>
<path d="M20.1112 134.811C20.2231 134.282 20.9776 134.282 21.0895 134.811L22.7609 142.707C22.8017 142.9 22.9515 143.05 23.1437 143.092L30.9584 144.795C31.4832 144.909 31.4832 145.657 30.9584 145.772L23.1437 147.474C22.9515 147.516 22.8017 147.667 22.7609 147.859L21.0895 155.755C20.9776 156.284 20.2231 156.284 20.1112 155.755L18.4398 147.859C18.3991 147.667 18.2493 147.516 18.0571 147.474L10.2423 145.772C9.71756 145.657 9.71756 144.909 10.2423 144.795L18.0571 143.092C18.2493 143.05 18.3991 142.9 18.4398 142.707L20.1112 134.811Z" fill="#C4CBF5"/>
<path d="M203.672 64.811C203.784 64.2824 204.538 64.2824 204.65 64.811L205.625 69.4175C205.666 69.6099 205.816 69.7606 206.008 69.8025L210.58 70.7985C211.105 70.9128 211.105 71.6613 210.58 71.7756L206.008 72.7716C205.816 72.8135 205.666 72.9641 205.625 73.1566L204.65 77.7631C204.538 78.2917 203.784 78.2917 203.672 77.7631L202.697 73.1566C202.656 72.9641 202.506 72.8135 202.314 72.7716L197.742 71.7756C197.217 71.6613 197.217 70.9128 197.742 70.7985L202.314 69.8025C202.506 69.7606 202.656 69.6099 202.697 69.4175L203.672 64.811Z" fill="#C4CBF5"/>
<path d="M223.829 138.665L225.36 145.899L232.491 147.452L225.36 149.006L223.829 156.239L222.298 149.006L215.168 147.452L222.298 145.899L223.829 138.665Z" fill="white"/>
<rect x="123.423" y="71.4457" width="90.1042" height="97.0039" rx="5.24599" transform="rotate(10 123.423 71.4457)" fill="white" stroke="#C4CBF5" stroke-width="2"/>
<rect x="127.728" y="77.5942" width="78.9585" height="68.8743" rx="5.24599" transform="rotate(10 127.728 77.5942)" fill="#F1F3FF" stroke="#F1F3FF" stroke-width="2"/>
<rect x="36.3417" y="87.092" width="90.1042" height="97.0039" rx="5.24599" transform="rotate(-10 36.3417 87.092)" fill="white" stroke="#C4CBF5" stroke-width="2"/>
<rect x="42.4903" y="91.3977" width="78.9585" height="68.8743" rx="5.24599" transform="rotate(-10 42.4903 91.3977)" fill="#F1F3FF" stroke="#F1F3FF" stroke-width="2"/>
<rect x="73.3065" y="63.5001" width="107.467" height="115.726" rx="6.08275" fill="white" stroke="#C4CBF5" stroke-width="2"/>
<rect x="79.66" y="69.8536" width="94.1248" height="82.0533" rx="6.08275" fill="#F1F3FF" stroke="#C4CBF5" stroke-width="2"/>
<path d="M162.424 103.03H92.4244C90.0814 103.03 88.182 104.93 88.182 107.273V117.879C88.182 120.222 90.0814 122.121 92.4244 122.121H162.424C164.767 122.121 166.667 120.222 166.667 117.879V107.273C166.667 104.93 164.767 103.03 162.424 103.03Z" stroke="#C4CBF5" stroke-width="2.12121"/>
<path opacity="0.45" d="M139.091 124.242C142.02 124.242 144.394 121.868 144.394 118.939C144.394 116.011 142.02 113.636 139.091 113.636C136.162 113.636 133.788 116.011 133.788 118.939C133.788 121.868 136.162 124.242 139.091 124.242Z" fill="#C4CBF5"/>
<path d="M143.235 141.605C142.386 141.605 141.594 141.605 140.873 141.559C139.984 141.499 139.13 141.195 138.403 140.68C137.676 140.166 137.106 139.461 136.753 138.643L132.279 129.8C131.951 129.418 131.787 128.922 131.823 128.419C131.859 127.917 132.092 127.449 132.472 127.118C132.783 126.868 133.171 126.733 133.57 126.737C133.863 126.746 134.152 126.818 134.415 126.948C134.678 127.079 134.909 127.265 135.094 127.494L137.126 130.268L137.156 130.304V119.767C137.156 119.244 137.364 118.743 137.734 118.373C138.103 118.003 138.605 117.796 139.128 117.796C139.65 117.796 140.152 118.003 140.521 118.373C140.891 118.743 141.099 119.244 141.099 119.767V126.661C141.076 126.407 141.106 126.151 141.187 125.91C141.269 125.669 141.4 125.447 141.571 125.259C141.743 125.071 141.952 124.921 142.185 124.818C142.419 124.715 142.67 124.662 142.925 124.662C143.18 124.662 143.432 124.715 143.665 124.818C143.898 124.921 144.107 125.071 144.279 125.259C144.451 125.447 144.581 125.669 144.663 125.91C144.744 126.151 144.774 126.407 144.751 126.661V128.098C144.729 127.844 144.759 127.588 144.84 127.347C144.922 127.106 145.052 126.884 145.224 126.696C145.396 126.508 145.605 126.358 145.838 126.255C146.071 126.152 146.323 126.099 146.578 126.099C146.833 126.099 147.084 126.152 147.318 126.255C147.551 126.358 147.76 126.508 147.932 126.696C148.103 126.884 148.234 127.106 148.316 127.347C148.397 127.588 148.427 127.844 148.404 128.098V129.205C148.381 128.951 148.412 128.696 148.493 128.454C148.574 128.213 148.705 127.991 148.877 127.803C149.049 127.615 149.258 127.465 149.491 127.362C149.724 127.259 149.976 127.206 150.231 127.206C150.485 127.206 150.737 127.259 150.97 127.362C151.203 127.465 151.412 127.615 151.584 127.803C151.756 127.991 151.887 128.213 151.968 128.454C152.05 128.696 152.08 128.951 152.057 129.205V135.926C152.021 137.993 151.087 141.478 147.8 141.478C147.561 141.489 145.54 141.606 143.239 141.606L143.235 141.605Z" fill="#C4CBF5"/>
</svg>
